# xmcd CD database file
#
# Track frame offsets:
#	150
#	17251
#	38454
#	57839
#	77494
#	102521
#	130376
#	153522
#	172844
#	194180
#	225646
#	245228
#	266584
#
# Disc length: 4002 seconds
#
# Revision: 0
# Processed by: cddbd v1.5PL3 Copyright (c) Steve Scherf et al.
# Submitted via: CDex 1.51
#
DISCID=a50fa00d
DTITLE=George Shearing - Lullabies of Birdland - A Musical Autobiography
DYEAR=2000
DGENRE=Jazz
TTITLE0=Easy to Love
TTITLE1=I've Got You Under My Skin
TTITLE2=Lullaby of Birdland
TTITLE3=My Silent Love
TTITLE4=There Is No Greater Love
TTITLE5=New York, New York Medley
TTITLE6=Lullaby of Birdland
TTITLE7=Lonely Moments
TTITLE8=Body and Soul
TTITLE9=Blue Monk
TTITLE10=You're My Everything
TTITLE11=How Beautiful is Night
TTITLE12=Fly Me to the Moon
EXTD=YEAR: 2000
EXTT0=
EXTT1=
EXTT2=
EXTT3=
EXTT4=
EXTT5=
EXTT6=
EXTT7=
EXTT8=
EXTT9=
EXTT10=
EXTT11=
EXTT12=
PLAYORDER=
